<?xml version="1.0" encoding="UTF-8"?>
<svg xmlns="http://www.w3.org/2000/svg" viewBox="0 0 233.37 215.75" width="180" height="180">
  <defs>
    <style>
      .cls-1 { opacity: .33; }
      .cls-2 { opacity: .3; }
      .cls-3 { fill: #fff8e4; }
      .cls-4 { fill: #333; }
      .cls-5 { fill: #f7931e; }
    </style>
  </defs>
  <g>
    <g class="cls-1">
      <path class="cls-4" d="M232.36,32.85c-7.42-10.94-11.97-9.22-25.87-9.22h-3.77c.41-2.39,1.96-9.01,2.03-10.48.17-3.22-2.98-6.37-6.32-6.29-8.23.21-9.1,10.99-10.38,16.76h-42.74c.54-3.2,1.45-7.38,1.62-10.48.2-3.84-2.14-6.6-6.32-6.29-8.14.6-8.33,11.32-9.54,16.76h-42.74c.52-3.15,1.51-7.46,1.62-10.48.12-3.56-2.53-6.51-6.32-6.29-8.51.51-8.7,11.16-9.96,16.76-14.23-.65-28.88-1.5-36.49,15.29L6.16,196.48c-.53,5.63.33,10.58,3.9,14.46,1.21,1.32,2.62,2.4,4.17,3.35,55.61,2.91,113.13.43,169.46,1.26,8.83-2.17,15.66-8,18.93-16.55l30.76-158.39-1.01-7.75Z"/>
    </g>
    <g>
      <path class="cls-4" d="M227.35,33.75l-30.76,158.39c-3.27,8.56-10.09,14.39-18.93,16.55-56.33-.82-113.85,1.66-169.46-1.25-1.54-.96-2.95-2.04-4.16-3.36-3.57-3.87-4.43-8.82-3.9-14.45L31.15,32.08c7.61-16.8,22.26-15.94,36.5-15.3-.44,1.94-.8,3.93-1.14,5.87-7.27.62-15.39-1.76-22.49,2.51-10.07,6.08-9.5,22.56-11.42,31.85-.66,3.15-1.64,6.43-2.29,9.64-7.62,37.67-19.75,85.34-23.68,121.93-.77,7.14.98,11.48,7.58,13.83h163.42c6.03-1.53,10.72-5.65,12.92-11.52,7.8-41.41,16.41-82.84,24.13-124.24.62-3.36,9.92-34.91,2.73-41.07-5.52-4.73-14.92-2.35-22.26-2.93.39-1.82,1.28-4.24,1.55-5.87h3.77c13.9,0,18.45-1.72,25.87,9.22l1.01,7.75Z"/>
      
      <!-- Spiral binding -->
      <path class="cls-4" d="M77.61.02c-8.51.51-8.7,11.16-9.96,16.76h19.54c-.52-3.15,1.51-7.46,1.62-10.48.12-3.56-2.53-6.51-6.32-6.29Z"/>
      <path class="cls-4" d="M134.6.02c-8.14.6-8.33,11.32-9.54,16.76h19.54c.54-3.2,1.45-7.38,1.62-10.48.2-3.84-2.14-6.6-6.32-6.29Z"/>
      <path class="cls-4" d="M192.42.02c-8.23.21-9.1,10.99-10.38,16.76h19.54c.41-2.39,1.96-9.01,2.03-10.48.17-3.22-2.98-6.37-6.32-6.29Z"/>
      
      <!-- Header band -->
      <path class="cls-5" d="M214.68,66.65H30.31c.65-3.21,1.63-6.49,2.29-9.64,1.92-9.29,1.35-25.77,11.42-31.85,7.1-4.27,15.22-1.89,22.49-2.51-.42,2.36-1.06,4.77-1.39,7.12h146.17c.62-2.49.92-5.04,1.47-7.54,7.34.58,16.74-1.8,22.26,2.93,7.19,6.16-2.11,37.71-2.73,41.07Z"/>
      
      <!-- Calendar body -->
      <path class="cls-3" d="M30.31,66.65c-7.62,37.67-19.75,85.34-23.68,121.93-.77,7.14.98,11.48,7.58,13.83h163.42c6.03-1.53,10.72-5.65,12.92-11.52,7.8-41.41,16.41-82.84,24.13-124.24H30.31Z"/>
    </g>
    
    <!-- Lightning bolt -->
    <g>
      <g class="cls-2">
        <path class="cls-4" d="M173.47,105.62l-49.14,41.54h37.97l-26.06,24.63H57.47l49.26-41.65h-37.39l25.33-24.52h78.79Z"/>
      </g>
      <g>
        <polygon class="cls-5" points="46.86,164.18 96.12,122.52 59.12,122.52 87.55,95.01 171.05,95.01 121.9,136.55 159.54,136.55 130.31,164.18"/>
        <path class="cls-4" d="M166.95,96.51l-49.14,41.54h37.97l-26.06,24.63H50.96l49.26-41.65h-37.39l25.33-24.52h78.79"/>
      </g>
    </g>
  </g>
</svg>
