<?xml version="1.0" encoding="UTF-8"?>
<svg xmlns="http://www.w3.org/2000/svg" viewBox="0 0 233.37 215.75" width="32" height="32">
  <defs>
    <style>
      .cls-3 { fill: #fff8e4; }
      .cls-4 { fill: #333; }
      .cls-5 { fill: #f7931e; }
    </style>
  </defs>
  <g>
    <!-- Calendar base -->
    <path class="cls-4" d="M227.35,33.75l-30.76,158.39c-3.27,8.56-10.09,14.39-18.93,16.55-56.33-.82-113.85,1.66-169.46-1.25-1.54-.96-2.95-2.04-4.16-3.36-3.57-3.87-4.43-8.82-3.9-14.45L31.15,32.08c7.61-16.8,22.26-15.94,36.5-15.3h148.7Z"/>
    
    <!-- Spiral binding holes -->
    <circle class="cls-4" cx="78" cy="16" r="3"/>
    <circle class="cls-4" cx="135" cy="16" r="3"/>
    <circle class="cls-4" cx="192" cy="16" r="3"/>
    
    <!-- Header band -->
    <path class="cls-5" d="M214.68,66.65H30.31c.65-3.21,1.63-6.49,2.29-9.64,1.92-9.29,1.35-25.77,11.42-31.85,7.1-4.27,15.22-1.89,22.49-2.51h146.17c7.34.58,16.74-1.8,22.26,2.93,7.19,6.16-2.11,37.71-2.73,41.07Z"/>
    
    <!-- Calendar body -->
    <path class="cls-3" d="M30.31,66.65c-7.62,37.67-19.75,85.34-23.68,121.93-.77,7.14.98,11.48,7.58,13.83h163.42c6.03-1.53,10.72-5.65,12.92-11.52,7.8-41.41,16.41-82.84,24.13-124.24H30.31Z"/>
    
    <!-- Lightning bolt -->
    <polygon class="cls-5" points="46.86,164.18 96.12,122.52 59.12,122.52 87.55,95.01 171.05,95.01 121.9,136.55 159.54,136.55 130.31,164.18"/>
    <path class="cls-4" d="M166.95,96.51l-49.14,41.54h37.97l-26.06,24.63H50.96l49.26-41.65h-37.39l25.33-24.52h78.79"/>
  </g>
</svg>
