<?xml version="1.0" encoding="UTF-8"?>
<svg id="Layer_2" data-name="Layer 2" xmlns="http://www.w3.org/2000/svg" viewBox="0 0 233.37 215.75">
  <defs>
    <style>
      .cls-1 {
        opacity: .33;
      }

      .cls-2 {
        opacity: .3;
      }

      .cls-3 {
        fill: #fff8e4;
      }

      .cls-4 {
        fill: #333;
      }

      .cls-5 {
        fill: #f7931e;
      }
    </style>
  </defs>
  <g id="Layer_1-2" data-name="Layer 1">
    <g class="cls-1">
      <path class="cls-4" d="M232.36,32.85c-7.42-10.94-11.97-9.22-25.87-9.22h-3.77c.41-2.39,1.96-9.01,2.03-10.48.17-3.22-2.98-6.37-6.32-6.29-8.23.21-9.1,10.99-10.38,16.76h-42.74c.54-3.2,1.45-7.38,1.62-10.48.2-3.84-2.14-6.6-6.32-6.29-8.14.6-8.33,11.32-9.54,16.76h-42.74c.52-3.15,1.51-7.46,1.62-10.48.12-3.56-2.53-6.51-6.32-6.29-8.51.51-8.7,11.16-9.96,16.76-14.23-.65-28.88-1.5-36.49,15.29L6.16,196.48c-.53,5.63.33,10.58,3.9,14.46,1.21,1.32,2.62,2.4,4.17,3.35,55.61,2.91,113.13.43,169.46,1.26,8.83-2.17,15.66-8,18.93-16.55l30.76-158.39-1.01-7.75Z"/>
    </g>
    <g id="Generative_Object" data-name="Generative Object">
      <g>
        <path class="cls-4" d="M227.35,33.75l-30.76,158.39c-3.27,8.56-10.09,14.39-18.93,16.55-56.33-.82-113.85,1.66-169.46-1.25-1.54-.96-2.95-2.04-4.16-3.36-3.57-3.87-4.43-8.82-3.9-14.45L31.15,32.08c7.61-16.8,22.26-15.94,36.5-15.3-.44,1.94-.8,3.93-1.14,5.87-7.27.62-15.39-1.76-22.49,2.51-10.07,6.08-9.5,22.56-11.42,31.85-.66,3.15-1.64,6.43-2.29,9.64-7.62,37.67-19.75,85.34-23.68,121.93-.77,7.14.98,11.48,7.58,13.83h163.42c6.03-1.53,10.72-5.65,12.92-11.52,7.8-41.41,16.41-82.84,24.13-124.24.62-3.36,9.92-34.91,2.73-41.07-5.52-4.73-14.92-2.35-22.26-2.93.39-1.82,1.28-4.24,1.55-5.87h3.77c13.9,0,18.45-1.72,25.87,9.22l1.01,7.75Z"/>
        <path class="cls-4" d="M143.07,16.78h38.97c-.36,1.61-.4,4.05-.72,5.87h-43.58c.39-1.82,1.29-4.25,1.56-5.87h3.77Z"/>
        <path class="cls-4" d="M86.09,16.78h38.97c-.43,1.94-.79,3.93-1.14,5.87h-43.16c.39-1.81,1.29-4.26,1.56-5.87h3.77Z"/>
        <path class="cls-5" d="M214.68,66.65H30.31c.65-3.21,1.63-6.49,2.29-9.64,1.92-9.29,1.35-25.77,11.42-31.85,7.1-4.27,15.22-1.89,22.49-2.51-.42,2.36-1.06,4.77-1.39,7.12-1.4,1.01-2.73,3.13-3.41,4.61-8.5,18.68,20.27,18.98,19.2.42-.1-1.7.19-3.94-1.54-5.03.57-2.35.87-4.76,1.38-7.12h43.16c-.39,2.22-.97,4.49-1.3,6.7-1.73,1.44-2.61,3.1-3.49,5.03-8.6,18.89,19.75,18.52,19.53.84-.01-1.27-.86-5.15-2.29-5.45.57-2.35.87-4.76,1.38-7.12h43.58c-.41,2.36-1.04,4.77-1.39,7.12-1.91.58-2.57,2.72-3.32,4.19-9.82,19.15,20.87,19.6,18.85,0-.14-1.41.05-3.59-1.78-3.77.62-2.49.92-5.04,1.47-7.54,7.34.58,16.74-1.8,22.26,2.93,7.19,6.16-2.11,37.71-2.73,41.07Z"/>
        <path class="cls-3" d="M179.94,29.77c-.6,4.09-2.43,6.76.64,9.64,2.15,2.01,4.54,2.52,8.01.84,4.3-2.08,4.24-6.58,5.1-10.06,1.83.18,1.64,2.36,1.78,3.77-1.91,15.11-23.04,15.09-18.86,0,.75-1.47,1.42-3.62,3.33-4.19Z"/>
        <path class="cls-3" d="M124.27,40.25c2.53,1.19,6.35,1.45,9.08-1.47,2.42-2.58,2.27-5.98,3.01-9.01,1.44.3,2.28,4.18,2.29,5.45-1.94,2.86-2.39,5.68-5.53,7.96-7.91,5.76-16.61-.37-14-8.8.88-1.93,1.76-3.59,3.49-5.03-.62,4.2-2.8,8.8,1.66,10.89Z"/>
        <path class="cls-3" d="M66.53,39.83c2.23,1.51,4.31,2.05,7.67.42,4.29-2.08,4.33-6.99,5.18-10.48,1.73,1.08,1.44,3.33,1.54,5.03-2.87,14.32-22.23,13.91-19.19-.42.67-1.48,2.01-3.61,3.41-4.61-.6,4.31-2.36,7.51,1.4,10.06Z"/>
        <g>
          <path class="cls-4" d="M192.42.02c-8.23.21-9.1,10.99-10.38,16.76-.36,1.61-.4,4.05-.72,5.87-.41,2.36-1.04,4.77-1.38,7.12-.6,4.09-2.43,6.76.64,9.64,2.15,2.01,4.54,2.52,8.01.84,4.3-2.08,4.24-6.58,5.1-10.06.61-2.49.92-5.04,1.46-7.54.4-1.82,1.28-4.24,1.56-5.87.41-2.39,1.96-9.01,2.03-10.48.17-3.22-2.98-6.37-6.32-6.29Z"/>
          <path class="cls-4" d="M195.47,33.96c2.01,19.6-28.68,19.15-18.86,0-4.18,15.09,16.95,15.11,18.86,0Z"/>
        </g>
        <g>
          <path class="cls-4" d="M134.6.02c-8.14.6-8.33,11.32-9.54,16.76-.43,1.94-.79,3.93-1.14,5.87-.39,2.22-.98,4.49-1.3,6.7-.62,4.2-2.8,8.8,1.66,10.89,2.53,1.19,6.35,1.45,9.08-1.47,2.42-2.58,2.27-5.98,3.01-9.01.57-2.36.88-4.76,1.38-7.12.39-1.82,1.29-4.25,1.56-5.87.54-3.2,1.45-7.38,1.62-10.48.2-3.84-2.14-6.6-6.32-6.29Z"/>
          <path class="cls-4" d="M138.65,35.22c.22,17.68-28.13,18.05-19.53-.84-2.61,8.43,6.09,14.56,14,8.8,3.13-2.28,3.59-5.1,5.53-7.96Z"/>
        </g>
        <g>
          <path class="cls-4" d="M77.61.02c-8.51.51-8.7,11.16-9.96,16.76-.43,1.94-.8,3.93-1.14,5.87-.42,2.36-1.05,4.77-1.38,7.12-.6,4.31-2.36,7.51,1.4,10.06,2.23,1.51,4.31,2.05,7.67.42,4.29-2.08,4.33-6.99,5.18-10.48.57-2.36.87-4.76,1.38-7.12.39-1.81,1.29-4.26,1.56-5.87.52-3.15,1.51-7.46,1.62-10.48.12-3.56-2.53-6.51-6.32-6.29Z"/>
          <path class="cls-4" d="M80.91,34.8c1.07,18.56-27.7,18.26-19.19-.42-3.04,14.32,16.33,14.74,19.19.42Z"/>
        </g>
      </g>
      <path class="cls-3" d="M30.31,66.65c-7.62,37.67-19.75,85.34-23.68,121.93-.77,7.14.98,11.48,7.58,13.83h163.42c6.03-1.53,10.72-5.65,12.92-11.52,7.8-41.41,16.41-82.84,24.13-124.24H30.31Z"/>
    </g>
    <g>
      <g class="cls-2">
        <path class="cls-4" d="M173.47,105.62l-49.14,41.54h37.97l-26.06,24.63H57.47l49.26-41.65h-37.39l25.33-24.52h78.79Z"/>
      </g>
      <g>
        <polygon class="cls-5" points="46.86 164.18 96.12 122.52 59.12 122.52 87.55 95.01 171.05 95.01 121.9 136.55 159.54 136.55 130.31 164.18 46.86 164.18"/>
        <path class="cls-4" d="M166.95,96.51l-49.14,41.54h37.97l-26.06,24.63H50.96l49.26-41.65h-37.39l25.33-24.52h78.79M175.14,93.51h-88.2l-.87.84-25.33,24.52-5.33,5.16h36.61l-43,36.36-6.26,5.29h88.15l.87-.82,26.06-24.63,5.48-5.18h-37.31l42.88-36.25,6.26-5.29h0Z"/>
      </g>
    </g>
  </g>
</svg>